<svg width="30" height="25" viewBox="0 0 30 25" fill="none" xmlns="http://www.w3.org/2000/svg">
<g clip-path="url(#clip0_353_1088)">
<path d="M5.595 21.875V23.4375C5.595 23.8802 5.44367 24.2512 5.14105 24.5508C4.83842 24.8503 4.46342 25 4.01605 25H2.43711C1.98973 25 1.61473 24.8503 1.3121 24.5508C1.00947 24.2512 0.858154 23.8802 0.858154 23.4375V10.9375L4.17395 1.5625C4.33184 1.09375 4.61473 0.716145 5.02263 0.429688C5.43052 0.143229 5.88447 0 6.38447 0H23.753C24.2529 0 24.7068 0.143229 25.1148 0.429688C25.5226 0.716145 25.8056 1.09375 25.9635 1.5625L29.2793 10.9375V23.4375C29.2793 23.8802 29.1279 24.2512 28.8253 24.5508C28.5226 24.8503 28.1476 25 27.7003 25H26.1214C25.6739 25 25.2989 24.8503 24.9964 24.5508C24.6937 24.2512 24.5424 23.8802 24.5424 23.4375V21.875H5.595ZM5.27921 7.8125H24.8582L23.2003 3.125H6.93711L5.27921 7.8125ZM7.96342 17.1875C8.62131 17.1875 9.18052 16.9597 9.64105 16.5039C10.1016 16.0481 10.3318 15.4948 10.3318 14.8438C10.3318 14.1927 10.1016 13.6393 9.64105 13.1836C9.18052 12.7279 8.62131 12.5 7.96342 12.5C7.30552 12.5 6.74631 12.7279 6.28579 13.1836C5.82526 13.6393 5.595 14.1927 5.595 14.8438C5.595 15.4948 5.82526 16.0481 6.28579 16.5039C6.74631 16.9597 7.30552 17.1875 7.96342 17.1875ZM22.174 17.1875C22.8318 17.1875 23.3911 16.9597 23.8516 16.5039C24.3121 16.0481 24.5424 15.4948 24.5424 14.8438C24.5424 14.1927 24.3121 13.6393 23.8516 13.1836C23.3911 12.7279 22.8318 12.5 22.174 12.5C21.5161 12.5 20.9568 12.7279 20.4964 13.1836C20.0358 13.6393 19.8056 14.1927 19.8056 14.8438C19.8056 15.4948 20.0358 16.0481 20.4964 16.5039C20.9568 16.9597 21.5161 17.1875 22.174 17.1875ZM4.01605 18.75H26.1214V10.9375H4.01605V18.75Z" fill="#1C2E35"/>
</g>
<defs>
<clipPath id="clip0_353_1088">
<rect width="30" height="25" fill="white"/>
</clipPath>
</defs>
</svg>
