<svg width="22" height="22" viewBox="0 0 22 22" fill="none" xmlns="http://www.w3.org/2000/svg">
<path d="M20.4541 4.90427C20.7547 4.60001 20.9233 4.18952 20.9233 3.7618C20.9233 3.33408 20.7547 2.9236 20.4541 2.61933L19.304 1.4692C19.0035 1.19113 18.6092 1.03666 18.1999 1.03666C17.7905 1.03666 17.3962 1.19113 17.0957 1.4692L10.9617 7.52659L4.90427 1.4692C4.60001 1.16858 4.18952 1 3.7618 1C3.33408 1 2.9236 1.16858 2.61933 1.4692L1.4692 2.61933C1.16858 2.9236 1 3.33408 1 3.7618C1 4.18952 1.16858 4.60001 1.4692 4.90427L7.60326 11.0383L1.4692 17.0957C1.16858 17.4 1 17.8105 1 18.2382C1 18.6659 1.16858 19.0764 1.4692 19.3807L2.61933 20.5308C2.9236 20.8314 3.33408 21 3.7618 21C4.18952 21 4.60001 20.8314 4.90427 20.5308L10.9617 14.3967L17.0957 20.4541C17.4 20.7547 17.8105 20.9233 18.2382 20.9233C18.6659 20.9233 19.0764 20.7547 19.3807 20.4541L20.5308 19.304C20.8314 18.9997 21 18.5892 21 18.1615C21 17.7338 20.8314 17.3233 20.5308 17.0191L14.3967 10.9617L20.4541 4.90427Z" fill="#BD1212" stroke="#010000" stroke-linecap="round" stroke-linejoin="round"/>
</svg>
