<svg width="48" height="48" viewBox="0 0 48 48" fill="none" xmlns="http://www.w3.org/2000/svg">
<path fill-rule="evenodd" clip-rule="evenodd" d="M25.6763 16.3163C25.2488 14.5612 22.7512 14.5612 22.3237 16.3163C22.2599 16.58 22.1347 16.8249 21.9583 17.0311C21.7819 17.2373 21.5594 17.399 21.3087 17.5029C21.0581 17.6068 20.7865 17.6501 20.5159 17.6293C20.2454 17.6084 19.9836 17.5239 19.7519 17.3828C18.2083 16.4423 16.442 18.2085 17.3825 19.7521C17.9901 20.7488 17.4512 22.0494 16.3171 22.325C14.561 22.7514 14.561 25.25 16.3171 25.6753C16.5809 25.7392 16.8259 25.8645 17.0321 26.041C17.2383 26.2175 17.3999 26.4402 17.5038 26.691C17.6076 26.9418 17.6507 27.2135 17.6297 27.4841C17.6086 27.7547 17.5239 28.0165 17.3825 28.2482C16.442 29.7917 18.2083 31.558 19.7519 30.6175C19.9836 30.4761 20.2454 30.3914 20.516 30.3704C20.7866 30.3493 21.0583 30.3924 21.3091 30.4963C21.5599 30.6001 21.7826 30.7617 21.9591 30.9679C22.1356 31.1741 22.2609 31.4191 22.3248 31.6829C22.7512 33.439 25.2499 33.439 25.6752 31.6829C25.7393 31.4192 25.8647 31.1744 26.0413 30.9684C26.2178 30.7623 26.4405 30.6008 26.6912 30.497C26.9419 30.3932 27.2135 30.35 27.4841 30.3709C27.7546 30.3919 28.0164 30.4764 28.2481 30.6175C29.7917 31.558 31.558 29.7917 30.6175 28.2482C30.4763 28.0165 30.3918 27.7547 30.3709 27.4842C30.35 27.2136 30.3932 26.942 30.497 26.6913C30.6008 26.4406 30.7623 26.2179 30.9683 26.0414C31.1744 25.8648 31.4192 25.7394 31.6829 25.6753C33.439 25.2489 33.439 22.7502 31.6829 22.325C31.4191 22.2611 31.1741 22.1358 30.9679 21.9593C30.7617 21.7828 30.6001 21.5601 30.4962 21.3093C30.3924 21.0585 30.3493 20.7868 30.3703 20.5162C30.3914 20.2456 30.4761 19.9838 30.6175 19.7521C31.558 18.2085 29.7917 16.4423 28.2481 17.3828C28.0164 17.5242 27.7546 17.6089 27.484 17.6299C27.2134 17.651 26.9417 17.6078 26.6909 17.504C26.4401 17.4002 26.2174 17.2386 26.0409 17.0324C25.8644 16.8262 25.7391 16.5812 25.6752 16.3174L25.6763 16.3163Z" stroke="#1C2E35" stroke-width="2"/>
<path d="M26 24C26 25.1046 25.1046 26 24 26C22.8954 26 22 25.1046 22 24C22 22.8954 22.8954 22 24 22C25.1046 22 26 22.8954 26 24Z" stroke="#1C2E35" stroke-width="2"/>
</svg>
