<svg width="64" height="64" viewBox="0 0 64 64" fill="none" xmlns="http://www.w3.org/2000/svg">
<path d="M21.3333 48.0002L31.9999 39.8668L42.6666 48.0002L38.6666 34.8002L49.3332 27.2002H36.2666L31.9999 13.3335L27.7333 27.2002H14.6666L25.3333 34.8002L21.3333 48.0002ZM31.9999 58.6668C28.311 58.6668 24.8444 57.9668 21.5999 56.5668C18.3555 55.1668 15.5333 53.2668 13.1333 50.8668C10.7333 48.4668 8.83325 45.6446 7.43325 42.4002C6.03325 39.1557 5.33325 35.689 5.33325 32.0002C5.33325 28.3113 6.03325 24.8446 7.43325 21.6002C8.83325 18.3557 10.7333 15.5335 13.1333 13.1335C15.5333 10.7335 18.3555 8.8335 21.5999 7.4335C24.8444 6.0335 28.311 5.3335 31.9999 5.3335C35.6888 5.3335 39.1555 6.0335 42.3999 7.4335C45.6444 8.8335 48.4666 10.7335 50.8666 13.1335C53.2666 15.5335 55.1666 18.3557 56.5666 21.6002C57.9666 24.8446 58.6666 28.3113 58.6666 32.0002C58.6666 35.689 57.9666 39.1557 56.5666 42.4002C55.1666 45.6446 53.2666 48.4668 50.8666 50.8668C48.4666 53.2668 45.6444 55.1668 42.3999 56.5668C39.1555 57.9668 35.6888 58.6668 31.9999 58.6668ZM31.9999 53.3335C37.9555 53.3335 42.9999 51.2668 47.1332 47.1335C51.2666 43.0002 53.3332 37.9557 53.3332 32.0002C53.3332 26.0446 51.2666 21.0002 47.1332 16.8668C42.9999 12.7335 37.9555 10.6668 31.9999 10.6668C26.0444 10.6668 20.9999 12.7335 16.8666 16.8668C12.7333 21.0002 10.6666 26.0446 10.6666 32.0002C10.6666 37.9557 12.7333 43.0002 16.8666 47.1335C20.9999 51.2668 26.0444 53.3335 31.9999 53.3335Z" fill="#98A77C"/>
</svg>
