<svg width="19" height="16" viewBox="0 0 19 16" fill="none" xmlns="http://www.w3.org/2000/svg">
<path d="M3.54346 14V15C3.54346 15.2833 3.44762 15.5208 3.25596 15.7125C3.06429 15.9042 2.82679 16 2.54346 16H1.54346C1.26012 16 1.02262 15.9042 0.830957 15.7125C0.63929 15.5208 0.543457 15.2833 0.543457 15V7L2.64346 1C2.74346 0.7 2.92262 0.458333 3.18096 0.275C3.43929 0.0916667 3.72679 0 4.04346 0H15.0435C15.3601 0 15.6476 0.0916667 15.906 0.275C16.1643 0.458333 16.3435 0.7 16.4435 1L18.5435 7V15C18.5435 15.2833 18.4476 15.5208 18.256 15.7125C18.0643 15.9042 17.8268 16 17.5435 16H16.5435C16.2601 16 16.0226 15.9042 15.831 15.7125C15.6393 15.5208 15.5435 15.2833 15.5435 15V14H3.54346ZM3.34346 5H15.7435L14.6935 2H4.39346L3.34346 5ZM5.04346 11C5.46012 11 5.81429 10.8542 6.10596 10.5625C6.39762 10.2708 6.54346 9.91667 6.54346 9.5C6.54346 9.08333 6.39762 8.72917 6.10596 8.4375C5.81429 8.14583 5.46012 8 5.04346 8C4.62679 8 4.27262 8.14583 3.98096 8.4375C3.68929 8.72917 3.54346 9.08333 3.54346 9.5C3.54346 9.91667 3.68929 10.2708 3.98096 10.5625C4.27262 10.8542 4.62679 11 5.04346 11ZM14.0435 11C14.4601 11 14.8143 10.8542 15.106 10.5625C15.3976 10.2708 15.5435 9.91667 15.5435 9.5C15.5435 9.08333 15.3976 8.72917 15.106 8.4375C14.8143 8.14583 14.4601 8 14.0435 8C13.6268 8 13.2726 8.14583 12.981 8.4375C12.6893 8.72917 12.5435 9.08333 12.5435 9.5C12.5435 9.91667 12.6893 10.2708 12.981 10.5625C13.2726 10.8542 13.6268 11 14.0435 11ZM2.54346 12H16.5435V7H2.54346V12Z" fill="#1C2E35"/>
</svg>
